<?xml version="1.0" encoding="utf-8"?>
<!-- Generator: Adobe Illustrator 24.1.2, SVG Export Plug-In . SVG Version: 6.00 Build 0)  -->
<svg version="1.1" baseProfile="basic" id="Livello_1"
	 xmlns="http://www.w3.org/2000/svg" xmlns:xlink="http://www.w3.org/1999/xlink" x="0px" y="0px" viewBox="0 0 68 68"
	 xml:space="preserve">
<style type="text/css">
	.st0{fill:#FFFFFF;}
</style>
<path class="st0" d="M65.5,30.3C65.5,30.3,65.5,30.3,65.5,30.3c-1-0.1-1.9,0.2-2.6,0.7c-1.4,1-3.1,1.7-4.9,1.7h-2.8
	c-1,0-1.9-0.7-2-1.7c-0.1-0.4-0.2-0.9-0.2-1.3c-0.2-1,0.4-2.1,1.5-2.2c1-0.2,2.2-0.3,2.9-0.2c0.6,0.1,1.1,0,1.7-0.2
	c0.1-0.1,0.3-0.1,0.4-0.2c1-0.6,1.3-1.8,0.9-2.8l-0.6-1.4c-0.4-1.1-1.6-1.6-2.7-1.3l0,0c-0.8,0.2-1.4,0.7-1.7,1.3
	c-0.3,0.6-1.2,1.2-1.9,1.8c-0.9,0.6-2.1,0.4-2.7-0.5c-0.2-0.4-0.5-0.8-0.7-1.1c-0.6-0.8-0.5-1.9,0.2-2.6l2.2-2.2
	c1.2-1.2,2.8-2,4.4-2.3c0.7-0.1,1.3-0.5,1.8-1c0.1-0.1,0.2-0.2,0.3-0.4c0.8-1.1,0.7-2.6-0.3-3.6l-1.3-1.3c-1-1-2.6-1.1-3.7-0.2
	c0,0,0,0,0,0c-0.7,0.6-1.2,1.4-1.3,2.3c-0.3,1.7-1,3.3-2.2,4.5L48.1,18c-0.7,0.7-1.8,0.8-2.6,0.2c-0.4-0.3-0.7-0.5-1.1-0.7
	c-0.9-0.6-1.1-1.8-0.5-2.6c0.6-0.9,1.3-1.8,1.9-2.2c0.5-0.3,0.8-0.8,1.1-1.3c0.1-0.1,0.1-0.3,0.1-0.5c0.3-1.1-0.3-2.2-1.4-2.6
	l-1.4-0.6c-1.1-0.4-2.3,0-2.9,1l0,0c-0.4,0.7-0.5,1.5-0.3,2.2c0.2,0.6,0.1,1.7-0.1,2.6c-0.2,1.1-1.2,1.8-2.3,1.5
	c-0.4-0.1-0.9-0.2-1.3-0.3c-1-0.2-1.7-1-1.7-2V9.6c0-1.7,0.6-3.4,1.5-4.8c0.4-0.6,0.6-1.2,0.6-2c0-0.2,0-0.3,0-0.5
	C37.5,1,36.3,0,34.9,0h-1.8c-1.4,0-2.6,1-2.8,2.5c0,0,0,0,0,0c-0.1,1,0.2,1.8,0.7,2.5c1,1.4,1.7,3.1,1.7,4.9v2.8c0,1-0.7,1.9-1.7,2
	c-0.4,0.1-0.9,0.2-1.3,0.2c-1,0.2-2.1-0.4-2.2-1.5c-0.2-1-0.3-2.2-0.2-2.9c0.1-0.6,0-1.1-0.2-1.7c-0.1-0.1-0.1-0.3-0.2-0.4
	c-0.6-1-1.8-1.4-2.8-0.9l-1.4,0.6c-1.1,0.4-1.6,1.6-1.3,2.7l0,0c0.2,0.8,0.7,1.4,1.3,1.7c0.6,0.3,1.2,1.2,1.8,1.9
	c0.6,0.9,0.4,2.1-0.5,2.7c-0.4,0.2-0.8,0.5-1.1,0.7c-0.8,0.6-1.9,0.5-2.6-0.2l-2.2-2.2c-1.2-1.2-2-2.8-2.3-4.4
	c-0.1-0.7-0.5-1.3-1-1.8c-0.1-0.1-0.2-0.2-0.4-0.3c-1.1-0.8-2.6-0.7-3.6,0.3l-1.3,1.3c-1,1-1.1,2.6-0.2,3.7l0,0
	c0.6,0.7,1.4,1.2,2.3,1.3c1.7,0.3,3.3,1,4.5,2.2l2.1,2.1c0.7,0.7,0.8,1.8,0.2,2.6c-0.3,0.4-0.5,0.7-0.7,1.1
	c-0.6,0.9-1.8,1.1-2.6,0.5c-0.9-0.6-1.8-1.3-2.2-1.9c-0.3-0.5-0.8-0.8-1.3-1.1c-0.1-0.1-0.3-0.1-0.5-0.1c-1.1-0.3-2.2,0.4-2.6,1.4
	l-0.6,1.4c-0.4,1.1,0,2.3,1,2.9l0,0c0.7,0.4,1.5,0.5,2.2,0.3c0.6-0.2,1.7-0.1,2.6,0.1c1.1,0.2,1.8,1.2,1.5,2.3
	c-0.1,0.4-0.2,0.9-0.3,1.3c-0.2,1-1,1.7-2,1.7H9.6c-1.7,0-3.4-0.6-4.8-1.5c-0.6-0.4-1.2-0.6-2-0.6c-0.2,0-0.3,0-0.5,0
	C1,30.5,0,31.7,0,33.1v1.8c0,1.4,1,2.6,2.5,2.8c0,0,0,0,0,0c1,0.1,1.8-0.2,2.5-0.7c1.4-1,3.1-1.7,4.9-1.7h2.8c1,0,1.9,0.7,2,1.7
	c0.1,0.4,0.2,0.9,0.2,1.3c0.2,1-0.4,2.1-1.5,2.2c-1,0.2-2.2,0.3-2.9,0.2c-0.6-0.1-1.1,0-1.7,0.2c-0.1,0.1-0.3,0.1-0.4,0.2
	c-1,0.6-1.3,1.8-0.9,2.8c0.2,0.4,0.4,0.9,0.6,1.4c0.4,1.1,1.6,1.6,2.7,1.3l0,0c0.8-0.2,1.4-0.7,1.7-1.3c0.3-0.6,1.2-1.2,1.9-1.8
	c0.9-0.6,2.1-0.4,2.7,0.5c0.2,0.4,0.5,0.8,0.7,1.1c0.6,0.8,0.5,1.9-0.2,2.6l-2.2,2.2c-1.2,1.2-2.8,2-4.4,2.3c-0.7,0.1-1.3,0.5-1.8,1
	c-0.1,0.1-0.2,0.2-0.3,0.4c-0.8,1.1-0.7,2.6,0.3,3.6l1.4,1.4c1,1,2.5,1,3.5,0.1c0,0,0,0,0.1-0.1c0.7-0.6,1.2-1.4,1.3-2.3
	c0.3-1.7,1-3.3,2.2-4.5l2.1-2.1c0.7-0.7,1.8-0.8,2.6-0.2c0.4,0.3,0.7,0.5,1.1,0.7c0.9,0.6,1.1,1.8,0.5,2.6c-0.6,0.9-1.3,1.8-1.9,2.2
	c-0.5,0.3-0.8,0.8-1.1,1.3c-0.1,0.1-0.1,0.3-0.1,0.5c-0.3,1.1,0.3,2.2,1.4,2.6l1.4,0.6c1.1,0.4,2.3,0,2.9-1l0,0
	c0.4-0.7,0.5-1.5,0.3-2.2c-0.2-0.6-0.1-1.7,0.1-2.6c0.2-1.1,1.2-1.8,2.3-1.5c0.4,0.1,0.9,0.2,1.3,0.3c1,0.2,1.7,1,1.7,2v3.2
	c0,1.7-0.6,3.4-1.5,4.8c-0.4,0.6-0.6,1.2-0.6,2c0,0.2,0,0.3,0,0.5c0.2,1.4,1.4,2.3,2.8,2.3h1.8c1.4,0,2.6-1,2.8-2.5c0,0,0,0,0,0
	c0.1-1-0.2-1.8-0.7-2.5c-1-1.4-1.7-3.1-1.7-4.9v-2.8c0-1,0.7-1.9,1.7-2c0.4-0.1,0.9-0.2,1.3-0.2c1-0.2,2.1,0.4,2.2,1.5
	c0.2,1,0.3,2.2,0.2,2.9c-0.1,0.6,0,1.1,0.2,1.7c0.1,0.1,0.1,0.3,0.2,0.4c0.6,1,1.8,1.3,2.8,0.9l1.4-0.6c1.1-0.4,1.6-1.6,1.3-2.7l0,0
	c-0.2-0.8-0.7-1.4-1.3-1.7c-0.6-0.3-1.2-1.2-1.8-1.9c-0.6-0.9-0.4-2.1,0.5-2.7c0.4-0.2,0.8-0.5,1.1-0.7c0.8-0.6,1.9-0.5,2.6,0.2
	l2.2,2.2c1.2,1.2,2,2.8,2.3,4.4c0.1,0.7,0.5,1.3,1,1.8c0.1,0.1,0.2,0.2,0.4,0.3c1.1,0.8,2.6,0.7,3.6-0.3l1.3-1.3
	c1-1,1.1-2.6,0.2-3.7l0,0c-0.6-0.7-1.4-1.2-2.3-1.3c-1.7-0.3-3.3-1-4.5-2.2L50,48.1c-0.7-0.7-0.8-1.8-0.2-2.6
	c0.3-0.4,0.5-0.7,0.7-1.1c0.6-0.9,1.8-1.1,2.6-0.5c0.9,0.6,1.8,1.3,2.2,1.9c0.3,0.5,0.8,0.8,1.3,1.1c0.1,0.1,0.3,0.1,0.5,0.1
	c1.1,0.3,2.2-0.3,2.6-1.4l0.6-1.4c0.4-1.1,0-2.3-1-2.9l0,0c-0.7-0.4-1.5-0.5-2.2-0.3c-0.6,0.2-1.7,0.1-2.6-0.1
	c-1.1-0.2-1.8-1.2-1.5-2.3c0.1-0.4,0.2-0.9,0.3-1.3c0.2-1,1-1.7,2-1.7h3.2c1.7,0,3.4,0.6,4.8,1.5c0.6,0.4,1.2,0.6,2,0.6
	c0.2,0,0.3,0,0.5,0c1.4-0.2,2.3-1.4,2.3-2.8v-1.8C68,31.7,67,30.5,65.5,30.3z M35.1,48.1c-8.4-0.3-15.3-7.2-15.7-15.6
	c-0.1-1.8,0.1-3.6,0.6-5.3c0.1-0.4-0.4-0.6-0.6-0.2c-1.4,2.6-2,5.5-1.9,8.4c0.4,8.1,7.1,14.7,15.2,15c4,0.2,7.7-1.1,10.7-3.5
	c0.3-0.2,0-0.7-0.3-0.5C40.6,47.6,37.9,48.2,35.1,48.1z M28.7,25.2c0,1.2-1,2.2-2.2,2.2c-1.2,0-2.2-1-2.2-2.2c0-1.2,1-2.2,2.2-2.2
	C27.7,23,28.7,24,28.7,25.2z M35.7,42.5c0,1.2-1,2.2-2.2,2.2c-1.2,0-2.2-1-2.2-2.2c0-1.2,1-2.2,2.2-2.2
	C34.7,40.2,35.7,41.2,35.7,42.5z M37.3,32.6c0,1.2-1,2.2-2.2,2.2c-1.2,0-2.2-1-2.2-2.2c0-1.2,1-2.2,2.2-2.2
	C36.3,30.4,37.3,31.4,37.3,32.6z M45.1,39c0,1.2-1,2.2-2.2,2.2c-1.2,0-2.2-1-2.2-2.2s1-2.2,2.2-2.2C44.1,36.8,45.1,37.8,45.1,39z
	 M48,30.9c0,1.2-1,2.2-2.2,2.2c-1.2,0-2.2-1-2.2-2.2c0-1.2,1-2.2,2.2-2.2C47,28.6,48,29.6,48,30.9z M28.7,35.7
	c0,1.6-1.3,2.8-2.8,2.8c-1.6,0-2.8-1.3-2.8-2.8c0-1.6,1.3-2.8,2.8-2.8C27.4,32.9,28.7,34.1,28.7,35.7z M39.8,23
	c0,1.6-1.3,2.8-2.8,2.8c-1.6,0-2.8-1.3-2.8-2.8c0-1.6,1.3-2.8,2.8-2.8C38.5,20.2,39.8,21.4,39.8,23z"/>
</svg>
