<?xml version="1.0" encoding="utf-8"?>
<!-- Generator: Adobe Illustrator 24.1.2, SVG Export Plug-In . SVG Version: 6.00 Build 0)  -->
<svg version="1.1" baseProfile="basic" id="Livello_1"
	 xmlns="http://www.w3.org/2000/svg" xmlns:xlink="http://www.w3.org/1999/xlink" x="0px" y="0px" viewBox="0 0 1150 320"
	 xml:space="preserve">
<style type="text/css">
	.st0{fill:#004584;}
	.st1{fill:#2A85AB;}
	.st2{fill:#FFFFFF;}
	.st3{fill:#D1031A;}
	.st4{fill:#66757C;}
	.st5{fill:#F1F2F2;}
	.st6{fill:#00A749;}
</style>
<g id="XMLID_2_">
	<path id="XMLID_67_" class="st0" d="M311.6,142.8c0,0-0.1,0-0.1,0c-4.5-0.4-8.7,0.8-12,3.3c-6.7,4.9-14.6,7.9-22.9,7.9h-13.4
		c-4.7,0-8.8-3.4-9.5-8.1c-0.3-2.1-0.7-4.1-1.2-6.1c-1.1-4.9,2.1-9.7,7-10.6c4.8-0.9,10.4-1.6,13.6-1.1c2.6,0.5,5.3,0.2,8-0.9
		c0.7-0.3,1.4-0.6,2-1c4.5-2.7,6.1-8.5,4.1-13.3l-2.7-6.6c-2.1-5.1-7.6-7.7-12.9-6.2l-0.1,0c-3.6,1.1-6.4,3.4-8.2,6.4
		c-1.6,2.7-5.4,5.9-9.1,8.6c-4.1,3.1-10,1.9-12.7-2.5c-1.1-1.8-2.3-3.6-3.5-5.3c-2.7-3.8-2.2-9,1.1-12.3l10.5-10.5
		c5.7-5.7,13-9.3,20.9-11c3.1-0.7,6-2.2,8.5-4.7c0.6-0.6,1.1-1.2,1.6-1.8c3.9-5.1,3.2-12.4-1.4-17l-5.9-5.9
		c-4.7-4.7-12.2-5.2-17.4-1.1c0,0-0.1,0.1-0.1,0.1c-3.5,2.9-5.6,6.8-6.2,10.9c-1.2,8-4.5,15.6-10.2,21.3l-9.8,9.8
		c-3.3,3.3-8.6,3.8-12.5,1c-1.7-1.2-3.4-2.4-5.1-3.5c-4.2-2.7-5.4-8.3-2.5-12.4c2.8-4.1,6.2-8.5,8.9-10.4c2.2-1.5,3.9-3.6,5-6.2
		c0.3-0.7,0.5-1.4,0.7-2.1c1.3-5.1-1.6-10.3-6.5-12.4l-6.6-2.8c-5-2.1-10.8-0.1-13.5,4.7l-0.1,0.1c-1.8,3.3-2.1,7-1.3,10.3
		c0.7,3,0.3,8-0.4,12.5c-0.8,5.1-5.8,8.4-10.8,7.2c-2.1-0.5-4.1-0.9-6.2-1.3c-4.6-0.8-7.9-4.8-7.9-9.5V45.3c0-8.1,2.7-15.8,7-22.6
		c1.7-2.7,2.7-5.9,2.7-9.3c0-0.8-0.1-1.6-0.2-2.4c-0.9-6.4-6.5-11-13-11l-8.4,0c-6.6,0-12.3,4.9-13,11.5c0,0,0,0.1,0,0.1
		c-0.4,4.5,0.8,8.7,3.3,12c4.9,6.7,7.9,14.6,7.9,22.9v13.4c0,4.7-3.4,8.8-8.1,9.5c-2.1,0.3-4.1,0.7-6.1,1.2c-4.9,1.1-9.7-2.1-10.6-7
		c-0.9-4.8-1.6-10.4-1.1-13.6c0.5-2.6,0.2-5.3-0.9-8c-0.3-0.6-0.6-1.2-0.9-1.8c-2.7-4.6-8.5-6.4-13.4-4.3l-6.7,2.7
		c-5.1,2.1-7.7,7.6-6.2,12.9l0,0.1c1.1,3.6,3.4,6.4,6.4,8.2c2.7,1.6,5.9,5.4,8.6,9.1c3.1,4.1,1.9,10-2.5,12.7
		c-1.8,1.1-3.6,2.3-5.3,3.5c-3.8,2.7-9,2.2-12.3-1.1L87.4,73.4c-5.7-5.7-9.3-13-11-20.9c-0.7-3.1-2.2-6-4.7-8.5
		c-0.6-0.6-1.2-1.1-1.8-1.6c-5.1-3.9-12.4-3.2-17,1.4L46.8,50c-4.7,4.7-5,12.1-0.9,17.3l0,0.1c2.9,3.5,6.8,5.6,10.9,6.2
		c8,1.2,15.6,4.5,21.3,10.2l9.8,9.8c3.3,3.3,3.8,8.6,1,12.5c-1.2,1.7-2.4,3.4-3.5,5.1c-2.7,4.2-8.3,5.4-12.4,2.5
		c-4.1-2.8-8.5-6.2-10.4-8.9c-1.5-2.2-3.6-3.9-6.2-5c-0.7-0.3-1.4-0.5-2.1-0.7c-5.1-1.3-10.3,1.7-12.3,6.5l-2.8,6.6
		c-2.1,5-0.1,10.8,4.7,13.5l0.1,0.1c3.3,1.8,7,2.1,10.3,1.3c3-0.7,8-0.3,12.5,0.4c5.1,0.8,8.4,5.8,7.2,10.8
		c-0.5,2.1-0.9,4.1-1.3,6.2c-0.8,4.6-4.8,7.9-9.5,7.9H48.4c-8.1,0-15.8-2.7-22.6-7c-2.7-1.7-5.9-2.7-9.3-2.7c-0.8,0-1.6,0.1-2.4,0.2
		c-6.4,0.9-11,6.5-11,13v8.4c0,6.6,4.9,12.3,11.5,13c0,0,0.1,0,0.1,0c4.5,0.4,8.7-0.8,12-3.3c6.7-4.9,14.6-7.9,22.9-7.9H63
		c4.7,0,8.8,3.4,9.5,8.1c0.3,2.1,0.7,4.1,1.2,6.1c1.1,4.9-2.1,9.7-7,10.6c-4.8,0.9-10.4,1.6-13.6,1.1c-2.6-0.5-5.3-0.2-8,0.9
		c-0.7,0.3-1.4,0.6-2,1c-4.5,2.7-6.1,8.5-4.1,13.3c0.8,2,1.8,4.4,2.7,6.7c2.1,5.1,7.6,7.7,12.9,6.2l0.1,0c3.6-1.1,6.4-3.4,8.2-6.4
		c1.6-2.7,5.4-5.9,9.1-8.6c4.1-3.1,10-1.9,12.7,2.5c1.1,1.8,2.3,3.6,3.5,5.3c2.7,3.8,2.2,9-1.1,12.3l-10.5,10.5
		c-5.7,5.7-13,9.3-20.9,11c-3.1,0.7-6,2.2-8.5,4.7c-0.6,0.6-1.1,1.2-1.6,1.8c-3.9,5.1-3.2,12.4,1.4,17l6.6,6.6
		c4.5,4.5,11.6,4.7,16.6,0.6c0.1-0.1,0.2-0.2,0.3-0.3c3.5-2.9,5.6-6.8,6.2-10.9c1.2-8,4.5-15.6,10.2-21.3l9.8-9.8
		c3.3-3.3,8.6-3.8,12.5-1c1.7,1.2,3.4,2.4,5.1,3.5c4.2,2.7,5.4,8.3,2.5,12.4c-2.8,4.1-6.2,8.5-8.9,10.4c-2.2,1.5-3.9,3.6-5,6.2
		c-0.3,0.7-0.5,1.4-0.7,2.1c-1.3,5.1,1.6,10.3,6.5,12.4l6.6,2.8c5,2.1,10.8,0.1,13.5-4.7l0.1-0.1c1.8-3.3,2.1-7,1.3-10.3
		c-0.7-3-0.3-8,0.4-12.5c0.8-5.1,5.8-8.4,10.8-7.2c2.1,0.5,4.1,0.9,6.2,1.3c4.6,0.8,7.9,4.8,7.9,9.5v14.9c0,8.1-2.7,15.8-7,22.6
		c-1.7,2.7-2.7,5.9-2.7,9.3c0,0.8,0.1,1.6,0.2,2.4c0.9,6.4,6.5,11,13,11l8.4,0c6.6,0,12.3-4.9,13-11.5c0,0,0-0.1,0-0.1
		c0.4-4.5-0.8-8.7-3.3-12c-4.9-6.7-7.9-14.6-7.9-22.9v-13.4c0-4.7,3.4-8.8,8.1-9.5c2.1-0.3,4.1-0.7,6.1-1.2c4.9-1.1,9.7,2.1,10.6,7
		c0.9,4.8,1.6,10.4,1.1,13.6c-0.5,2.6-0.2,5.3,0.9,8c0.3,0.7,0.6,1.4,1,2c2.7,4.5,8.5,6.1,13.3,4.1l6.6-2.7
		c5.1-2.1,7.7-7.6,6.2-12.9l0-0.1c-1.1-3.6-3.4-6.4-6.4-8.2c-2.7-1.6-5.9-5.4-8.6-9.1c-3.1-4.1-1.9-10,2.5-12.7
		c1.8-1.1,3.6-2.3,5.3-3.5c3.8-2.7,9-2.2,12.3,1.1l10.5,10.5c5.7,5.7,9.3,13,11,20.9c0.7,3.1,2.2,6,4.7,8.5c0.6,0.6,1.2,1.1,1.8,1.6
		c5.1,3.9,12.4,3.2,17-1.4l6.1-6.1c4.7-4.7,5-12.1,0.9-17.3l0-0.1c-2.9-3.5-6.8-5.6-10.9-6.2c-8-1.2-15.6-4.5-21.3-10.2l-9.8-9.8
		c-3.3-3.3-3.8-8.6-1-12.5c1.2-1.7,2.4-3.4,3.5-5.1c2.7-4.2,8.3-5.4,12.4-2.5c4.1,2.8,8.5,6.2,10.4,8.9c1.5,2.2,3.6,3.9,6.2,5
		c0.7,0.3,1.4,0.5,2.1,0.7c5.1,1.3,10.3-1.6,12.4-6.5l2.8-6.6c2.1-5,0.1-10.8-4.7-13.4l-0.1-0.1c-3.3-1.8-7-2.1-10.3-1.3
		c-3,0.7-8,0.3-12.5-0.4c-5.1-0.8-8.4-5.8-7.2-10.8c0.5-2.1,0.9-4.1,1.3-6.2c0.8-4.6,4.8-7.9,9.5-7.9h14.9c8.1,0,15.8,2.7,22.6,7
		c2.7,1.7,5.9,2.7,9.3,2.7c0.8,0,1.6-0.1,2.4-0.2c6.4-0.9,11-6.5,11-13v-8.4C323.1,149.2,318.2,143.4,311.6,142.8z"/>
	<g id="XMLID_4_">
		<path id="XMLID_16_" class="st1" d="M168.4,226.4c-39.5-1.6-72-33.8-73.9-73.3c-0.4-8.4,0.5-16.8,2.8-24.8
			c0.5-1.7-1.9-2.7-2.7-1.1c-6.5,12-9.6,25.7-8.8,39.6c2,38,33.4,69,71.5,70.6c18.6,0.8,36.3-5.2,50.4-16.6c1.4-1.1,0-3.3-1.6-2.5
			C194.4,224.1,181.4,226.9,168.4,226.4z"/>
	</g>
	<g id="XMLID_3_">
		<path id="XMLID_1_" class="st2" d="M138.2,118.7c0,5.8-4.7,10.5-10.5,10.5c-5.8,0-10.5-4.7-10.5-10.5c0-5.8,4.7-10.5,10.5-10.5
			C133.5,108.2,138.2,112.9,138.2,118.7z"/>
		<path id="XMLID_7_" class="st2" d="M171.3,199.8c0,5.8-4.7,10.5-10.5,10.5c-5.8,0-10.5-4.7-10.5-10.5c0-5.8,4.7-10.5,10.5-10.5
			C166.6,189.3,171.3,194,171.3,199.8z"/>
		<path id="XMLID_6_" class="st2" d="M178.6,153.5c0,5.8-4.7,10.5-10.5,10.5c-5.8,0-10.5-4.7-10.5-10.5c0-5.8,4.7-10.5,10.5-10.5
			C173.9,143.1,178.6,147.8,178.6,153.5z"/>
		<path id="XMLID_10_" class="st2" d="M215.5,183.4c0,5.8-4.7,10.5-10.5,10.5c-5.8,0-10.5-4.7-10.5-10.5c0-5.8,4.7-10.5,10.5-10.5
			C210.8,173,215.5,177.7,215.5,183.4z"/>
		<path id="XMLID_9_" class="st2" d="M228.9,145.3c0,5.8-4.7,10.5-10.5,10.5c-5.8,0-10.5-4.7-10.5-10.5c0-5.8,4.7-10.5,10.5-10.5
			C224.2,134.8,228.9,139.5,228.9,145.3z"/>
		<circle id="XMLID_5_" class="st2" cx="124.9" cy="168" r="13.3"/>
		<path id="XMLID_8_" class="st2" d="M190.5,108.2c0,7.3-5.9,13.3-13.3,13.3c-7.3,0-13.3-5.9-13.3-13.3c0-7.3,5.9-13.3,13.3-13.3
			C184.5,94.9,190.5,100.9,190.5,108.2z"/>
	</g>
</g>
<g id="XMLID_12_">
	<path class="st3" d="M352.8,160.5c-8.9-5.4-15.6-12.7-20.3-21.7c-4.7-9.1-7-19.1-7-30c0-11.6,2.5-21.9,7.6-31
		c5-9.1,12.1-16.3,21.2-21.4c9.1-5.1,19.5-7.7,31-7.7c5.2,0,10.1,0.6,14.6,1.7c4.5,1.1,8.2,2.4,11.2,3.8c3,1.4,4.9,2.6,5.9,3.6
		l-7.8,15.9c-6.5-5.7-14.9-8.6-25.3-8.6c-7.3,0-14,1.8-19.9,5.4c-5.9,3.6-10.6,8.8-14,15.4c-3.4,6.7-5.1,14.4-5.1,23.2
		c0,8.1,1.5,15.4,4.5,22c3,6.6,7.5,11.8,13.3,15.6c5.8,3.8,12.8,5.7,20.9,5.7c9.3,0,18.4-2.7,27.1-8l5.3,15.1
		c-2.3,2.1-6.6,4.2-12.8,6.1c-6.2,2-12.5,2.9-18.9,2.9C372.2,168.6,361.7,165.9,352.8,160.5z"/>
	<path class="st3" d="M462.8,161.7c-9-4.9-16.1-12-21.4-21.1c-5.3-9.1-8-19.7-8-31.8c0-12.2,2.7-22.8,8-31.9
		c5.3-9.1,12.4-16,21.4-20.9c9-4.9,18.8-7.3,29.4-7.3c10.6,0,20.4,2.4,29.4,7.3c9,4.9,16.1,11.9,21.4,20.9c5.3,9.1,8,19.7,8,31.9
		c0,12.1-2.7,22.7-8,31.8c-5.3,9.1-12.4,16.2-21.4,21.1c-9,4.9-18.8,7.4-29.4,7.4C481.6,169.1,471.8,166.6,462.8,161.7z
		 M512.2,147.8c6-3.4,10.8-8.5,14.4-15.1c3.6-6.6,5.3-14.6,5.3-23.8c0-9.3-1.8-17.3-5.3-24c-3.6-6.6-8.3-11.6-14.3-15
		c-6-3.4-12.7-5.1-20.1-5.1c-7.4,0-14.2,1.7-20.2,5.1c-6,3.4-10.8,8.4-14.3,15c-3.5,6.6-5.3,14.6-5.3,24c0,9.2,1.8,17.2,5.4,23.8
		c3.6,6.6,8.5,11.7,14.6,15.1c6.1,3.4,12.7,5.2,19.8,5.2C499.5,153,506.2,151.3,512.2,147.8z"/>
	<path class="st3" d="M559.8,50.5H580l35,80.4l35.2-80.4h20.1l-54,117h-2.4L559.8,50.5z"/>
	<path class="st3" d="M691,50.5h17.8v117H691V50.5z"/>
	<path class="st3" d="M744.5,50.5h28.2c23.6,0,40,5.6,49.4,16.7c9.4,11.1,14.1,24.4,14.1,39.8c0,10.7-2,20.6-6,29.7
		c-4,9.1-10.7,16.5-20,22.2c-9.3,5.7-21.5,8.6-36.5,8.6h-29.1V50.5z M775.5,151.7c14.6,0,25.3-4.2,31.9-12.5
		c6.6-8.3,9.9-18.8,9.9-31.4c0-12.3-3.3-22.3-10-30.1c-6.7-7.7-17.3-11.6-31.8-11.6h-13.2v85.6H775.5z"/>
	<path class="st4" d="M867.8,100.9h54.6v15.3h-54.6V100.9z"/>
	<path class="st0" d="M969.2,52.2l18-5.1v120.3h-18V52.2z"/>
	<path class="st0" d="M1072.6,131.7c0.4-0.7,1.6-2.7,3.5-5.9c1.9-3.2,3.4-5.4,4.5-6.7c-3.9,3.5-9.6,5.3-17,5.3
		c-7,0-13.2-1.6-18.7-4.9c-5.5-3.3-9.7-7.8-12.7-13.5c-3-5.7-4.5-12.1-4.5-19.1c0-7.5,1.8-14.2,5.3-20c3.5-5.8,8.4-10.3,14.7-13.4
		c6.3-3.2,13.6-4.8,21.9-4.8c7.2,0,13.8,1.6,19.7,4.7c5.9,3.1,10.6,7.7,14.1,13.6c3.4,5.9,5.2,12.8,5.2,20.7c0,5.1-0.7,10-2.1,14.8
		c-1.4,4.8-4.6,12-9.5,21.8c-5,9.8-13,24.2-24,43.3h-20.7L1072.6,131.7z M1083.9,103.2c4.2-3.9,6.3-9.3,6.3-16.1
		c0-6.8-2.1-12.3-6.2-16.6c-4.1-4.3-9.3-6.4-15.6-6.4c-6.8,0-12.2,2.1-16.3,6.4c-4.1,4.3-6.1,9.8-6.1,16.5c0,6.9,2.1,12.3,6.4,16.2
		c4.2,3.9,9.4,5.9,15.6,5.9C1074.3,109.1,1079.7,107.1,1083.9,103.2z"/>
</g>
<g id="XMLID_17_">
	<g id="XMLID_13_">
		<path class="st0" d="M365.3,237.6h4v36.5h-4V237.6z"/>
		<path class="st0" d="M393.1,237.6l21.4,30.3l-0.1-30.3h3.8v36.5h-3.7l-21.9-31l0.1,31H389v-36.5H393.1z"/>
		<path class="st0" d="M438,237.6h12.1c10.8,0,18.3,7.9,18.3,18.3c0,10.4-7.5,18.3-18.3,18.3H438V237.6z M442,241.2v29.3h8.4
			c7.9,0,13.9-6.3,13.9-14.7c0-8.4-6.1-14.7-13.9-14.7H442z"/>
		<path class="st0" d="M486.3,237.6h4v36.5h-4V237.6z"/>
		<path class="st0" d="M537.9,266l2.6,2.7c-3.5,3.9-8.4,6-13.7,6c-10.5,0-18.6-8.4-18.6-18.8c0-10.5,8.1-18.8,18.6-18.8
			c5.4,0,10.3,2.1,13.8,6l-2.7,2.8c-2.7-3.2-6.9-5.1-11.1-5.1c-8.2,0-14.5,6.6-14.5,15.2c0,8.6,6.3,15.2,14.6,15.2
			C531.2,271,535.3,269.2,537.9,266z"/>
		<path class="st0" d="M568.6,237.6h4.8l14.3,36.5h-4.3l-4.3-11.5h-16.3l-4.3,11.5h-4.2L568.6,237.6z M577.8,259.4l-6.9-18.3
			l-6.9,18.3H577.8z"/>
		<path class="st0" d="M594.4,237.6h29.2v3.5h-12.6v33h-4v-33h-12.6V237.6z"/>
		<path class="st0" d="M654.5,274.7c-10.1,0-18.2-8.3-18.2-18.8c0-10.5,8-18.8,18.2-18.8c10.2,0,18.2,8.3,18.2,18.8
			C672.7,266.4,664.7,274.7,654.5,274.7z M654.5,240.6c-7.9,0-14.1,6.6-14.1,15.2c0,8.6,6.2,15.2,14.1,15.2c8,0,14.1-6.6,14.1-15.2
			C668.6,247.3,662.5,240.6,654.5,240.6z"/>
		<path class="st0" d="M690.7,237.6h15c7,0,11.6,4.2,11.6,10.5c0,4.9-2.9,8.5-7.6,9.9l7.8,16.1h-4.4l-7.4-15.6h-10.9v15.6h-4V237.6z
			 M694.8,241.1v14h10.6c4.8,0,7.9-2.8,7.9-7c0-4.3-3.1-7-7.9-7H694.8z"/>
		<path class="st0" d="M734.8,237.6h4v36.5h-4V237.6z"/>
		<path class="st0" d="M786.5,266l2.6,2.7c-3.5,3.9-8.4,6-13.7,6c-10.5,0-18.6-8.4-18.6-18.8c0-10.5,8.1-18.8,18.6-18.8
			c5.4,0,10.3,2.1,13.8,6l-2.7,2.8c-2.7-3.2-6.9-5.1-11.1-5.1c-8.2,0-14.5,6.6-14.5,15.2c0,8.6,6.3,15.2,14.6,15.2
			C779.7,271,783.8,269.2,786.5,266z"/>
		<path class="st0" d="M822.6,274.7c-10.1,0-18.2-8.3-18.2-18.8c0-10.5,8-18.8,18.2-18.8c10.2,0,18.2,8.3,18.2,18.8
			C840.8,266.4,832.8,274.7,822.6,274.7z M822.6,240.6c-7.9,0-14.1,6.6-14.1,15.2c0,8.6,6.2,15.2,14.1,15.2c8,0,14.1-6.6,14.1-15.2
			C836.7,247.3,830.6,240.6,822.6,240.6z"/>
		<path class="st0" d="M853,237.6h4.3l12.5,32.7l12.6-32.7h4.1l-14.4,36.5h-4.8L853,237.6z"/>
		<path class="st0" d="M902,237.6h4v36.5h-4V237.6z"/>
		<path class="st0" d="M925.7,237.6h12.1c10.8,0,18.3,7.9,18.3,18.3c0,10.4-7.5,18.3-18.3,18.3h-12.1V237.6z M929.7,241.2v29.3h8.4
			c7.9,0,13.9-6.3,13.9-14.7c0-8.4-6.1-14.7-13.9-14.7H929.7z"/>
		<path class="st3" d="M975.9,271.6c0,1.6-1.3,2.9-2.7,2.9c-1.5,0-2.8-1.3-2.8-2.9c0-1.6,1.3-2.8,2.8-2.8
			C974.7,268.8,975.9,270.1,975.9,271.6z"/>
		<path class="st3" d="M1019.9,266l2.6,2.7c-3.5,3.9-8.4,6-13.7,6c-10.5,0-18.6-8.4-18.6-18.8c0-10.5,8.1-18.8,18.6-18.8
			c5.4,0,10.3,2.1,13.8,6l-2.7,2.8c-2.7-3.2-6.9-5.1-11.1-5.1c-8.2,0-14.5,6.6-14.5,15.2c0,8.6,6.3,15.2,14.6,15.2
			C1013.2,271,1017.2,269.2,1019.9,266z"/>
		<path class="st3" d="M1056,274.7c-10.1,0-18.2-8.3-18.2-18.8c0-10.5,8-18.8,18.2-18.8c10.2,0,18.2,8.3,18.2,18.8
			C1074.2,266.4,1066.2,274.7,1056,274.7z M1056,240.6c-7.9,0-14.1,6.6-14.1,15.2c0,8.6,6.2,15.2,14.1,15.2c8,0,14.1-6.6,14.1-15.2
			C1070.1,247.3,1064,240.6,1056,240.6z"/>
		<path class="st3" d="M1096,242.2v31.9h-3.8v-36.5h5.6l12.2,26l12.2-26h5.6v36.5h-3.8v-31.8l-14,29.2L1096,242.2z"/>
	</g>
	<g id="XMLID_14_">
		<rect id="XMLID_18_" x="635.6" y="206.3" class="st5" width="185.2" height="5.9"/>
		<rect id="XMLID_19_" x="635.6" y="300.6" class="st5" width="185.2" height="5.9"/>
	</g>
	<g id="XMLID_11_">
		<rect id="XMLID_22_" x="450.4" y="206.3" class="st6" width="185.2" height="5.9"/>
		<rect id="XMLID_20_" x="450.4" y="300.6" class="st6" width="185.2" height="5.9"/>
	</g>
	<g id="XMLID_31_">
		<rect id="XMLID_33_" x="820.8" y="206.3" class="st3" width="185.2" height="5.9"/>
		<rect id="XMLID_32_" x="820.8" y="300.6" class="st3" width="185.2" height="5.9"/>
	</g>
</g>
<g>
</g>
<g>
</g>
<g>
</g>
<g>
</g>
<g>
</g>
<g>
</g>
<g>
</g>
<g>
</g>
<g>
</g>
<g>
</g>
<g>
</g>
</svg>
