<?xml version="1.0" encoding="utf-8"?>
<!-- Generator: Adobe Illustrator 24.1.2, SVG Export Plug-In . SVG Version: 6.00 Build 0)  -->
<svg version="1.1" baseProfile="basic" id="Livello_1"
	 xmlns="http://www.w3.org/2000/svg" xmlns:xlink="http://www.w3.org/1999/xlink" x="0px" y="0px" viewBox="0 0 232 68"
	 xml:space="preserve">
<style type="text/css">
	.st0{fill:#FFFFFF;}
</style>
<path class="st0" d="M65.5,30.2C65.5,30.2,65.5,30.2,65.5,30.2c-1-0.1-1.9,0.2-2.6,0.7c-1.4,1-3.1,1.7-4.9,1.7h-2.8
	c-1,0-1.9-0.7-2-1.7c-0.1-0.4-0.2-0.9-0.2-1.3c-0.2-1,0.4-2,1.5-2.2c1-0.2,2.2-0.3,2.9-0.2c0.6,0.1,1.1,0,1.7-0.2
	c0.1-0.1,0.3-0.1,0.4-0.2c1-0.6,1.3-1.8,0.9-2.8l-0.6-1.4c-0.4-1.1-1.6-1.6-2.7-1.3l0,0c-0.8,0.2-1.4,0.7-1.7,1.3
	c-0.3,0.6-1.2,1.2-1.9,1.8c-0.9,0.6-2.1,0.4-2.7-0.5c-0.2-0.4-0.5-0.8-0.7-1.1c-0.6-0.8-0.5-1.9,0.2-2.6l2.2-2.2
	c1.2-1.2,2.8-2,4.4-2.3c0.7-0.1,1.3-0.5,1.8-1c0.1-0.1,0.2-0.2,0.3-0.4c0.8-1.1,0.7-2.6-0.3-3.6l-1.3-1.3c-1-1-2.6-1.1-3.7-0.2
	c0,0,0,0,0,0c-0.7,0.6-1.2,1.4-1.3,2.3c-0.3,1.7-1,3.3-2.2,4.5l-2.1,2.1c-0.7,0.7-1.8,0.8-2.6,0.2c-0.4-0.3-0.7-0.5-1.1-0.7
	c-0.9-0.6-1.1-1.8-0.5-2.6c0.6-0.9,1.3-1.8,1.9-2.2c0.5-0.3,0.8-0.8,1.1-1.3c0.1-0.1,0.1-0.3,0.1-0.4c0.3-1.1-0.3-2.2-1.4-2.6
	l-1.4-0.6c-1.1-0.4-2.3,0-2.9,1l0,0c-0.4,0.7-0.5,1.5-0.3,2.2c0.2,0.6,0.1,1.7-0.1,2.6c-0.2,1.1-1.2,1.8-2.3,1.5
	c-0.4-0.1-0.9-0.2-1.3-0.3c-1-0.2-1.7-1-1.7-2V9.6c0-1.7,0.6-3.3,1.5-4.8c0.4-0.6,0.6-1.2,0.6-2c0-0.2,0-0.3,0-0.5
	C37.5,1,36.3,0,34.9,0h-1.8c-1.4,0-2.6,1-2.8,2.4c0,0,0,0,0,0C30.2,3.4,30.5,4.3,31,5c1,1.4,1.7,3.1,1.7,4.8v2.8c0,1-0.7,1.9-1.7,2
	c-0.4,0.1-0.9,0.1-1.3,0.2c-1,0.2-2.1-0.4-2.2-1.5c-0.2-1-0.3-2.2-0.2-2.9c0.1-0.5,0-1.1-0.2-1.7c-0.1-0.1-0.1-0.3-0.2-0.4
	c-0.6-1-1.8-1.3-2.8-0.9l-1.4,0.6c-1.1,0.4-1.6,1.6-1.3,2.7l0,0c0.2,0.8,0.7,1.4,1.3,1.7c0.6,0.3,1.2,1.1,1.8,1.9
	c0.6,0.9,0.4,2.1-0.5,2.7c-0.4,0.2-0.8,0.5-1.1,0.7c-0.8,0.6-1.9,0.5-2.6-0.2l-2.2-2.2c-1.2-1.2-2-2.8-2.3-4.4
	c-0.1-0.7-0.5-1.3-1-1.8c-0.1-0.1-0.2-0.2-0.4-0.3c-1.1-0.8-2.6-0.7-3.6,0.3l-1.3,1.3c-1,1-1.1,2.6-0.2,3.6l0,0
	c0.6,0.7,1.4,1.2,2.3,1.3c1.7,0.2,3.3,1,4.5,2.2l2.1,2.1c0.7,0.7,0.8,1.8,0.2,2.6c-0.3,0.4-0.5,0.7-0.7,1.1
	c-0.6,0.9-1.8,1.1-2.6,0.5c-0.9-0.6-1.8-1.3-2.2-1.9c-0.3-0.5-0.8-0.8-1.3-1.1C11.2,21,11,21,10.9,20.9c-1.1-0.3-2.2,0.3-2.6,1.4
	l-0.6,1.4c-0.4,1.1,0,2.3,1,2.8l0,0c0.7,0.4,1.5,0.5,2.2,0.3c0.6-0.2,1.7-0.1,2.6,0.1c1.1,0.2,1.8,1.2,1.5,2.3
	c-0.1,0.4-0.2,0.9-0.3,1.3c-0.2,1-1,1.7-2,1.7H9.6c-1.7,0-3.4-0.6-4.8-1.5c-0.6-0.4-1.2-0.6-2-0.6c-0.2,0-0.3,0-0.5,0
	C1,30.4,0,31.5,0,32.9v1.8c0,1.4,1,2.6,2.5,2.8c0,0,0,0,0,0c1,0.1,1.8-0.2,2.5-0.7c1.4-1,3.1-1.7,4.9-1.7h2.8c1,0,1.9,0.7,2,1.7
	c0.1,0.4,0.2,0.9,0.2,1.3c0.2,1-0.4,2-1.5,2.2c-1,0.2-2.2,0.3-2.9,0.2c-0.6-0.1-1.1,0-1.7,0.2c-0.1,0.1-0.3,0.1-0.4,0.2
	c-1,0.6-1.3,1.8-0.9,2.8c0.2,0.4,0.4,0.9,0.6,1.4c0.4,1.1,1.6,1.6,2.7,1.3l0,0c0.8-0.2,1.4-0.7,1.7-1.3c0.3-0.6,1.2-1.2,1.9-1.8
	c0.9-0.6,2.1-0.4,2.7,0.5c0.2,0.4,0.5,0.8,0.7,1.1c0.6,0.8,0.5,1.9-0.2,2.6l-2.2,2.2c-1.2,1.2-2.8,2-4.4,2.3c-0.7,0.1-1.3,0.5-1.8,1
	c-0.1,0.1-0.2,0.2-0.3,0.4c-0.8,1.1-0.7,2.6,0.3,3.6l1.4,1.4c1,1,2.5,1,3.5,0.1c0,0,0,0,0.1-0.1c0.7-0.6,1.2-1.4,1.3-2.3
	c0.3-1.7,1-3.3,2.2-4.5l2.1-2.1c0.7-0.7,1.8-0.8,2.6-0.2c0.4,0.3,0.7,0.5,1.1,0.7c0.9,0.6,1.1,1.8,0.5,2.6c-0.6,0.9-1.3,1.8-1.9,2.2
	c-0.5,0.3-0.8,0.8-1.1,1.3c-0.1,0.1-0.1,0.3-0.1,0.4c-0.3,1.1,0.3,2.2,1.4,2.6l1.4,0.6c1.1,0.4,2.3,0,2.9-1l0,0
	c0.4-0.7,0.5-1.5,0.3-2.2c-0.2-0.6-0.1-1.7,0.1-2.6c0.2-1.1,1.2-1.8,2.3-1.5c0.4,0.1,0.9,0.2,1.3,0.3c1,0.2,1.7,1,1.7,2V58
	c0,1.7-0.6,3.3-1.5,4.8c-0.4,0.6-0.6,1.2-0.6,2c0,0.2,0,0.3,0,0.5c0.2,1.3,1.4,2.3,2.8,2.3h1.8c1.4,0,2.6-1,2.8-2.4c0,0,0,0,0,0
	c0.1-0.9-0.2-1.8-0.7-2.5c-1-1.4-1.7-3.1-1.7-4.8v-2.8c0-1,0.7-1.9,1.7-2c0.4-0.1,0.9-0.1,1.3-0.2c1-0.2,2.1,0.4,2.2,1.5
	c0.2,1,0.3,2.2,0.2,2.9c-0.1,0.5,0,1.1,0.2,1.7c0.1,0.1,0.1,0.3,0.2,0.4c0.6,0.9,1.8,1.3,2.8,0.9l1.4-0.6c1.1-0.4,1.6-1.6,1.3-2.7
	l0,0c-0.2-0.8-0.7-1.4-1.3-1.7c-0.6-0.3-1.2-1.1-1.8-1.9c-0.6-0.9-0.4-2.1,0.5-2.7c0.4-0.2,0.8-0.5,1.1-0.7c0.8-0.6,1.9-0.5,2.6,0.2
	l2.2,2.2c1.2,1.2,2,2.8,2.3,4.4c0.1,0.7,0.5,1.3,1,1.8c0.1,0.1,0.2,0.2,0.4,0.3c1.1,0.8,2.6,0.7,3.6-0.3l1.3-1.3
	c1-1,1.1-2.6,0.2-3.6l0,0c-0.6-0.7-1.4-1.2-2.3-1.3c-1.7-0.2-3.3-1-4.5-2.2L50,47.8c-0.7-0.7-0.8-1.8-0.2-2.6
	c0.3-0.4,0.5-0.7,0.7-1.1c0.6-0.9,1.8-1.1,2.6-0.5c0.9,0.6,1.8,1.3,2.2,1.9c0.3,0.5,0.8,0.8,1.3,1.1c0.1,0.1,0.3,0.1,0.5,0.1
	c1.1,0.3,2.2-0.3,2.6-1.4l0.6-1.4c0.4-1.1,0-2.3-1-2.8l0,0c-0.7-0.4-1.5-0.5-2.2-0.3c-0.6,0.2-1.7,0.1-2.6-0.1
	c-1.1-0.2-1.8-1.2-1.5-2.3c0.1-0.4,0.2-0.9,0.3-1.3c0.2-1,1-1.7,2-1.7h3.2c1.7,0,3.4,0.6,4.8,1.5c0.6,0.4,1.2,0.6,2,0.6
	c0.2,0,0.3,0,0.5,0C67,37.2,68,36,68,34.7v-1.8C68,31.5,67,30.3,65.5,30.2z M35.1,47.8c-8.4-0.3-15.3-7.1-15.7-15.5
	c-0.1-1.8,0.1-3.5,0.6-5.2c0.1-0.4-0.4-0.6-0.6-0.2c-1.4,2.5-2,5.4-1.9,8.4c0.4,8,7.1,14.6,15.2,14.9c4,0.2,7.7-1.1,10.7-3.5
	c0.3-0.2,0-0.7-0.3-0.5C40.6,47.3,37.9,47.9,35.1,47.8z M28.7,25.1c0,1.2-1,2.2-2.2,2.2c-1.2,0-2.2-1-2.2-2.2c0-1.2,1-2.2,2.2-2.2
	C27.7,22.9,28.7,23.9,28.7,25.1z M35.7,42.2c0,1.2-1,2.2-2.2,2.2c-1.2,0-2.2-1-2.2-2.2c0-1.2,1-2.2,2.2-2.2
	C34.7,40,35.7,41,35.7,42.2z M37.3,32.4c0,1.2-1,2.2-2.2,2.2c-1.2,0-2.2-1-2.2-2.2c0-1.2,1-2.2,2.2-2.2
	C36.3,30.2,37.3,31.2,37.3,32.4z M45.1,38.7c0,1.2-1,2.2-2.2,2.2c-1.2,0-2.2-1-2.2-2.2c0-1.2,1-2.2,2.2-2.2
	C44.1,36.5,45.1,37.5,45.1,38.7z M48,30.7c0,1.2-1,2.2-2.2,2.2c-1.2,0-2.2-1-2.2-2.2s1-2.2,2.2-2.2C47,28.5,48,29.5,48,30.7z
	 M28.7,35.5c0,1.5-1.3,2.8-2.8,2.8c-1.6,0-2.8-1.3-2.8-2.8s1.3-2.8,2.8-2.8C27.4,32.7,28.7,33.9,28.7,35.5z M39.8,22.9
	c0,1.5-1.3,2.8-2.8,2.8c-1.6,0-2.8-1.3-2.8-2.8c0-1.5,1.3-2.8,2.8-2.8C38.5,20.1,39.8,21.3,39.8,22.9z"/>
<g id="XMLID_61_">
	<g id="XMLID_74_">
		<path class="st0" d="M95.1,35.4c-1.6-1-2.8-2.3-3.6-3.9c-0.8-1.6-1.3-3.4-1.3-5.4c0-2.1,0.5-3.9,1.4-5.5c0.9-1.6,2.2-2.9,3.8-3.8
			c1.6-0.9,3.5-1.4,5.5-1.4c0.9,0,1.8,0.1,2.6,0.3s1.5,0.4,2,0.7c0.5,0.3,0.9,0.5,1.1,0.6l-1.4,2.8c-1.2-1-2.7-1.5-4.5-1.5
			c-1.3,0-2.5,0.3-3.6,1c-1.1,0.6-1.9,1.6-2.5,2.8c-0.6,1.2-0.9,2.6-0.9,4.2c0,1.4,0.3,2.7,0.8,3.9c0.5,1.2,1.3,2.1,2.4,2.8
			c1,0.7,2.3,1,3.7,1c1.7,0,3.3-0.5,4.8-1.4l0.9,2.7c-0.4,0.4-1.2,0.7-2.3,1.1s-2.2,0.5-3.4,0.5C98.6,36.9,96.7,36.4,95.1,35.4z"/>
		<path class="st0" d="M114.7,35.6c-1.6-0.9-2.9-2.1-3.8-3.8c-0.9-1.6-1.4-3.5-1.4-5.7c0-2.2,0.5-4.1,1.4-5.7
			c0.9-1.6,2.2-2.9,3.8-3.7c1.6-0.9,3.4-1.3,5.2-1.3c1.9,0,3.6,0.4,5.2,1.3s2.9,2.1,3.8,3.7c0.9,1.6,1.4,3.5,1.4,5.7
			c0,2.2-0.5,4.1-1.4,5.7c-0.9,1.6-2.2,2.9-3.8,3.8c-1.6,0.9-3.4,1.3-5.2,1.3C118.1,36.9,116.3,36.5,114.7,35.6z M123.6,33.1
			c1.1-0.6,1.9-1.5,2.6-2.7c0.6-1.2,1-2.6,1-4.3c0-1.7-0.3-3.1-1-4.3c-0.6-1.2-1.5-2.1-2.6-2.7c-1.1-0.6-2.3-0.9-3.6-0.9
			c-1.3,0-2.5,0.3-3.6,0.9c-1.1,0.6-1.9,1.5-2.6,2.7c-0.6,1.2-0.9,2.6-0.9,4.3c0,1.6,0.3,3.1,1,4.3c0.6,1.2,1.5,2.1,2.6,2.7
			c1.1,0.6,2.3,0.9,3.5,0.9C121.3,34.1,122.5,33.8,123.6,33.1z"/>
		<path class="st0" d="M132.1,15.8h3.6l6.3,14.4l6.3-14.4h3.6l-9.6,20.9h-0.4L132.1,15.8z"/>
		<path class="st0" d="M155.5,15.8h3.2v20.9h-3.2V15.8z"/>
		<path class="st0" d="M165.1,15.8h5c4.2,0,7.2,1,8.8,3c1.7,2,2.5,4.4,2.5,7.1c0,1.9-0.4,3.7-1.1,5.3c-0.7,1.6-1.9,2.9-3.6,4
			c-1.7,1-3.8,1.5-6.5,1.5h-5.2V15.8z M170.6,33.8c2.6,0,4.5-0.7,5.7-2.2c1.2-1.5,1.8-3.4,1.8-5.6c0-2.2-0.6-4-1.8-5.4
			c-1.2-1.4-3.1-2.1-5.7-2.1h-2.4v15.3H170.6z"/>
		<path class="st0" d="M187.1,24.8h9.8v2.7h-9.8V24.8z"/>
		<path class="st0" d="M205.2,16.1l3.2-0.9v21.5h-3.2V16.1z"/>
		<path class="st0" d="M223.7,30.3c0.1-0.1,0.3-0.5,0.6-1.1c0.3-0.6,0.6-1,0.8-1.2c-0.7,0.6-1.7,0.9-3,0.9c-1.3,0-2.4-0.3-3.3-0.9
			c-1-0.6-1.7-1.4-2.3-2.4c-0.5-1-0.8-2.2-0.8-3.4c0-1.3,0.3-2.5,0.9-3.6c0.6-1,1.5-1.8,2.6-2.4c1.1-0.6,2.4-0.9,3.9-0.9
			c1.3,0,2.5,0.3,3.5,0.8s1.9,1.4,2.5,2.4c0.6,1.1,0.9,2.3,0.9,3.7c0,0.9-0.1,1.8-0.4,2.6s-0.8,2.2-1.7,3.9
			c-0.9,1.7-2.3,4.3-4.3,7.7H220L223.7,30.3z M225.7,25.2c0.7-0.7,1.1-1.7,1.1-2.9c0-1.2-0.4-2.2-1.1-3c-0.7-0.8-1.7-1.2-2.8-1.2
			c-1.2,0-2.2,0.4-2.9,1.2c-0.7,0.8-1.1,1.7-1.1,2.9c0,1.2,0.4,2.2,1.1,2.9c0.8,0.7,1.7,1.1,2.8,1.1C224,26.2,225,25.9,225.7,25.2z"
			/>
	</g>
</g>
</svg>
