<?xml version="1.0" encoding="utf-8"?>
<!-- Generator: Adobe Illustrator 24.1.2, SVG Export Plug-In . SVG Version: 6.00 Build 0)  -->
<svg version="1.1" baseProfile="basic" id="Livello_1"
	 xmlns="http://www.w3.org/2000/svg" xmlns:xlink="http://www.w3.org/1999/xlink" x="0px" y="0px" viewBox="0 0 68 68"
	 xml:space="preserve">
<style type="text/css">
	.st0{fill:#004584;}
	.st1{fill:#2A85AB;}
	.st2{fill:#FFFFFF;}
	.st3{fill:#F1F2F2;}
	.st4{fill:#00A749;}
	.st5{fill:#D1031A;}
</style>
<g id="XMLID_2_">
	<path id="XMLID_67_" class="st0" d="M65.5,30.8C65.5,30.8,65.5,30.8,65.5,30.8c-1-0.1-1.9,0.2-2.6,0.6c-1.4,0.9-3.1,1.4-4.9,1.4
		h-2.8c-1,0-1.9-0.6-2-1.5c-0.1-0.4-0.2-0.8-0.2-1.1c-0.2-0.9,0.4-1.8,1.5-1.9c1-0.2,2.2-0.3,2.9-0.2c0.6,0.1,1.1,0,1.7-0.2
		c0.1-0.1,0.3-0.1,0.4-0.2c1-0.5,1.3-1.6,0.9-2.4l-0.6-1.2c-0.4-0.9-1.6-1.4-2.7-1.1l0,0c-0.8,0.2-1.4,0.6-1.7,1.2
		c-0.3,0.5-1.2,1.1-1.9,1.6c-0.9,0.6-2.1,0.3-2.7-0.5c-0.2-0.3-0.5-0.7-0.7-1c-0.6-0.7-0.5-1.7,0.2-2.3l2.2-1.9c1.2-1,2.8-1.7,4.4-2
		c0.7-0.1,1.3-0.4,1.8-0.9c0.1-0.1,0.2-0.2,0.3-0.3c0.8-0.9,0.7-2.3-0.3-3.1l-1.3-1.1c-1-0.9-2.6-1-3.7-0.2c0,0,0,0,0,0
		c-0.7,0.5-1.2,1.3-1.3,2c-0.3,1.5-1,2.9-2.2,3.9l-2.1,1.8c-0.7,0.6-1.8,0.7-2.6,0.2c-0.4-0.2-0.7-0.4-1.1-0.6
		c-0.9-0.5-1.1-1.5-0.5-2.3c0.6-0.7,1.3-1.6,1.9-1.9c0.5-0.3,0.8-0.7,1.1-1.1c0.1-0.1,0.1-0.3,0.1-0.4c0.3-0.9-0.3-1.9-1.4-2.3
		l-1.4-0.5c-1.1-0.4-2.3,0-2.9,0.9l0,0c-0.4,0.6-0.5,1.3-0.3,1.9c0.2,0.6,0.1,1.5-0.1,2.3c-0.2,0.9-1.2,1.5-2.3,1.3
		c-0.4-0.1-0.9-0.2-1.3-0.2c-1-0.1-1.7-0.9-1.7-1.7v-2.7c0-1.5,0.6-2.9,1.5-4.1c0.4-0.5,0.6-1.1,0.6-1.7c0-0.1,0-0.3,0-0.4
		c-0.2-1.2-1.4-2-2.8-2l-1.8,0c-1.4,0-2.6,0.9-2.8,2.1c0,0,0,0,0,0C30.2,7.6,30.5,8.3,31,9c1,1.2,1.7,2.7,1.7,4.2v2.5
		c0,0.9-0.7,1.6-1.7,1.7c-0.4,0.1-0.9,0.1-1.3,0.2c-1,0.2-2.1-0.4-2.2-1.3c-0.2-0.9-0.3-1.9-0.2-2.5c0.1-0.5,0-1-0.2-1.5
		c-0.1-0.1-0.1-0.2-0.2-0.3c-0.6-0.8-1.8-1.2-2.8-0.8l-1.4,0.5c-1.1,0.4-1.6,1.4-1.3,2.4l0,0c0.2,0.7,0.7,1.2,1.3,1.5
		c0.6,0.3,1.2,1,1.8,1.7c0.6,0.8,0.4,1.8-0.5,2.3c-0.4,0.2-0.8,0.4-1.1,0.6c-0.8,0.5-1.9,0.4-2.6-0.2l-2.2-1.9c-1.2-1-2-2.4-2.3-3.8
		c-0.1-0.6-0.5-1.1-1-1.6c-0.1-0.1-0.2-0.2-0.4-0.3c-1.1-0.7-2.6-0.6-3.6,0.3l-1.3,1.1c-1,0.9-1.1,2.2-0.2,3.2l0,0
		c0.6,0.6,1.4,1,2.3,1.1c1.7,0.2,3.3,0.8,4.5,1.9l2.1,1.8c0.7,0.6,0.8,1.6,0.2,2.3c-0.3,0.3-0.5,0.6-0.7,0.9c-0.6,0.8-1.8,1-2.6,0.5
		c-0.9-0.5-1.8-1.1-2.2-1.6c-0.3-0.4-0.8-0.7-1.3-0.9c-0.1-0.1-0.3-0.1-0.5-0.1c-1.1-0.2-2.2,0.3-2.6,1.2l-0.6,1.2
		c-0.4,0.9,0,2,1,2.5l0,0c0.7,0.3,1.5,0.4,2.2,0.2c0.6-0.1,1.7-0.1,2.6,0.1c1.1,0.1,1.8,1.1,1.5,2c-0.1,0.4-0.2,0.8-0.3,1.1
		c-0.2,0.8-1,1.5-2,1.5H9.6c-1.7,0-3.4-0.5-4.8-1.3c-0.6-0.3-1.2-0.5-2-0.5c-0.2,0-0.3,0-0.5,0C1,31,0,32,0,33.2v1.5
		C0,36,1,37,2.5,37.2c0,0,0,0,0,0c1,0.1,1.8-0.2,2.5-0.6c1.4-0.9,3.1-1.4,4.9-1.4h2.8c1,0,1.9,0.6,2,1.5c0.1,0.4,0.2,0.8,0.2,1.1
		c0.2,0.9-0.4,1.8-1.5,1.9c-1,0.2-2.2,0.3-2.9,0.2c-0.6-0.1-1.1,0-1.7,0.2c-0.1,0.1-0.3,0.1-0.4,0.2c-1,0.5-1.3,1.6-0.9,2.4
		C7.8,43,8,43.5,8.2,43.9c0.4,0.9,1.6,1.4,2.7,1.1l0,0c0.8-0.2,1.4-0.6,1.7-1.2c0.3-0.5,1.2-1.1,1.9-1.6c0.9-0.6,2.1-0.3,2.7,0.5
		c0.2,0.3,0.5,0.7,0.7,1c0.6,0.7,0.5,1.7-0.2,2.3l-2.2,1.9c-1.2,1-2.8,1.7-4.4,2c-0.7,0.1-1.3,0.4-1.8,0.9C9.2,50.9,9.1,51,9,51.1
		c-0.8,0.9-0.7,2.3,0.3,3.1l1.4,1.2c1,0.8,2.5,0.9,3.5,0.1c0,0,0,0,0.1,0c0.7-0.5,1.2-1.3,1.3-2c0.3-1.5,1-2.9,2.2-3.9l2.1-1.8
		c0.7-0.6,1.8-0.7,2.6-0.2c0.4,0.2,0.7,0.4,1.1,0.6c0.9,0.5,1.1,1.5,0.5,2.3c-0.6,0.7-1.3,1.6-1.9,1.9c-0.5,0.3-0.8,0.7-1.1,1.1
		c-0.1,0.1-0.1,0.3-0.1,0.4c-0.3,0.9,0.3,1.9,1.4,2.3l1.4,0.5c1.1,0.4,2.3,0,2.9-0.9l0,0c0.4-0.6,0.5-1.3,0.3-1.9
		c-0.2-0.6-0.1-1.5,0.1-2.3c0.2-0.9,1.2-1.5,2.3-1.3c0.4,0.1,0.9,0.2,1.3,0.2c1,0.1,1.7,0.9,1.7,1.7v2.7c0,1.5-0.6,2.9-1.5,4.1
		c-0.4,0.5-0.6,1.1-0.6,1.7c0,0.1,0,0.3,0,0.4c0.2,1.2,1.4,2,2.8,2l1.8,0c1.4,0,2.6-0.9,2.8-2.1c0,0,0,0,0,0
		c0.1-0.8-0.2-1.6-0.7-2.2c-1-1.2-1.7-2.7-1.7-4.2v-2.5c0-0.9,0.7-1.6,1.7-1.7c0.4-0.1,0.9-0.1,1.3-0.2c1-0.2,2.1,0.4,2.2,1.3
		c0.2,0.9,0.3,1.9,0.2,2.5c-0.1,0.5,0,1,0.2,1.5c0.1,0.1,0.1,0.3,0.2,0.4c0.6,0.8,1.8,1.1,2.8,0.8l1.4-0.5c1.1-0.4,1.6-1.4,1.3-2.4
		l0,0c-0.2-0.7-0.7-1.2-1.3-1.5c-0.6-0.3-1.2-1-1.8-1.7c-0.6-0.8-0.4-1.8,0.5-2.3c0.4-0.2,0.8-0.4,1.1-0.6c0.8-0.5,1.9-0.4,2.6,0.2
		l2.2,1.9c1.2,1,2,2.4,2.3,3.8c0.1,0.6,0.5,1.1,1,1.6c0.1,0.1,0.2,0.2,0.4,0.3c1.1,0.7,2.6,0.6,3.6-0.3l1.3-1.1
		c1-0.9,1.1-2.2,0.2-3.2l0,0c-0.6-0.6-1.4-1-2.3-1.1c-1.7-0.2-3.3-0.8-4.5-1.9L50,46.2c-0.7-0.6-0.8-1.6-0.2-2.3
		c0.3-0.3,0.5-0.6,0.7-0.9c0.6-0.8,1.8-1,2.6-0.5c0.9,0.5,1.8,1.1,2.2,1.6c0.3,0.4,0.8,0.7,1.3,0.9c0.1,0.1,0.3,0.1,0.5,0.1
		c1.1,0.2,2.2-0.3,2.6-1.2l0.6-1.2c0.4-0.9,0-2-1-2.5l0,0c-0.7-0.3-1.5-0.4-2.2-0.2c-0.6,0.1-1.7,0.1-2.6-0.1
		c-1.1-0.1-1.8-1.1-1.5-2c0.1-0.4,0.2-0.8,0.3-1.1c0.2-0.8,1-1.5,2-1.5h3.2c1.7,0,3.4,0.5,4.8,1.3c0.6,0.3,1.2,0.5,2,0.5
		c0.2,0,0.3,0,0.5,0C67,37,68,36,68,34.8v-1.5C68,32,67,31,65.5,30.8z"/>
	<g id="XMLID_4_">
		<path id="XMLID_16_" class="st1" d="M35.1,46.2c-8.4-0.3-15.3-6.2-15.7-13.5c-0.1-1.5,0.1-3.1,0.6-4.6c0.1-0.3-0.4-0.5-0.6-0.2
			c-1.4,2.2-2,4.7-1.9,7.3c0.4,7,7.1,12.7,15.2,13c4,0.1,7.7-1,10.7-3.1c0.3-0.2,0-0.6-0.3-0.5C40.6,45.8,37.9,46.3,35.1,46.2z"/>
	</g>
	<g id="XMLID_3_">
		<path id="XMLID_1_" class="st2" d="M28.7,26.4c0,1.1-1,1.9-2.2,1.9c-1.2,0-2.2-0.9-2.2-1.9c0-1.1,1-1.9,2.2-1.9
			C27.7,24.5,28.7,25.4,28.7,26.4z"/>
		<path id="XMLID_7_" class="st2" d="M35.7,41.3c0,1.1-1,1.9-2.2,1.9c-1.2,0-2.2-0.9-2.2-1.9c0-1.1,1-1.9,2.2-1.9
			C34.7,39.4,35.7,40.3,35.7,41.3z"/>
		<path id="XMLID_6_" class="st2" d="M37.3,32.8c0,1.1-1,1.9-2.2,1.9c-1.2,0-2.2-0.9-2.2-1.9c0-1.1,1-1.9,2.2-1.9
			C36.3,30.9,37.3,31.8,37.3,32.8z"/>
		<path id="XMLID_10_" class="st2" d="M45.1,38.3c0,1.1-1,1.9-2.2,1.9c-1.2,0-2.2-0.9-2.2-1.9c0-1.1,1-1.9,2.2-1.9
			C44.1,36.4,45.1,37.2,45.1,38.3z"/>
		<path id="XMLID_9_" class="st2" d="M48,31.3c0,1.1-1,1.9-2.2,1.9c-1.2,0-2.2-0.9-2.2-1.9c0-1.1,1-1.9,2.2-1.9
			C47,29.4,48,30.2,48,31.3z"/>
		<ellipse id="XMLID_5_" class="st2" cx="25.9" cy="35.5" rx="2.8" ry="2.4"/>
		<path id="XMLID_8_" class="st2" d="M39.8,24.5c0,1.3-1.3,2.4-2.8,2.4c-1.6,0-2.8-1.1-2.8-2.4c0-1.3,1.3-2.4,2.8-2.4
			C38.5,22.1,39.8,23.1,39.8,24.5z"/>
	</g>
</g>
<g id="XMLID_17_">
	<g id="XMLID_14_">
		<rect id="XMLID_18_" x="22.7" class="st3" width="22.7" height="4"/>
		<rect id="XMLID_19_" x="22.7" y="64" class="st3" width="22.7" height="4"/>
	</g>
	<g id="XMLID_11_">
		<rect id="XMLID_22_" class="st4" width="22.7" height="4"/>
		<rect id="XMLID_20_" y="64" class="st4" width="22.7" height="4"/>
	</g>
	<g id="XMLID_31_">
		<rect id="XMLID_33_" x="45.3" class="st5" width="22.7" height="4"/>
		<rect id="XMLID_32_" x="45.3" y="64" class="st5" width="22.7" height="4"/>
	</g>
</g>
</svg>
